<svg xmlns="http://www.w3.org/2000/svg" xmlns:xlink="http://www.w3.org/1999/xlink" width="206.65" height="95.284" viewBox="0 0 206.65 95.284">
  <defs>
    <linearGradient id="linear-gradient" x1="0.04" y1="0.246" x2="0.597" y2="0.468" gradientUnits="objectBoundingBox">
      <stop offset="0" stop-color="#aec923"/>
      <stop offset="0.14" stop-color="#b3b223"/>
      <stop offset="0.42" stop-color="#c07724"/>
      <stop offset="0.83" stop-color="#d51a26"/>
      <stop offset="0.94" stop-color="#db0026"/>
    </linearGradient>
    <linearGradient id="linear-gradient-2" y1="0.5" x2="0.782" y2="0.5" gradientUnits="objectBoundingBox">
      <stop offset="0" stop-color="#aec923"/>
      <stop offset="0.94" stop-color="#db0026"/>
    </linearGradient>
    <linearGradient id="linear-gradient-3" x1="-0.002" y1="0.5" x2="0.639" y2="0.5" xlink:href="#linear-gradient-2"/>
    <linearGradient id="linear-gradient-4" x1="0.001" y1="0.502" x2="1" y2="0.502" gradientUnits="objectBoundingBox">
      <stop offset="0.31" stop-color="#db0026"/>
      <stop offset="0.42" stop-color="#ad0f36"/>
      <stop offset="0.57" stop-color="#70244b"/>
      <stop offset="0.71" stop-color="#40345b"/>
      <stop offset="0.83" stop-color="#1d3f67"/>
      <stop offset="0.93" stop-color="#08466e"/>
      <stop offset="1" stop-color="#004971"/>
    </linearGradient>
    <linearGradient id="linear-gradient-5" x1="0.405" y1="0.526" x2="0.925" y2="0.658" gradientUnits="objectBoundingBox">
      <stop offset="0.02" stop-color="#db0026"/>
      <stop offset="0.27" stop-color="#a71138"/>
      <stop offset="0.84" stop-color="#273c64"/>
      <stop offset="1" stop-color="#004971"/>
    </linearGradient>
  </defs>
  <g id="logo" transform="translate(-33.493 -23.489)">
    <path id="Tracé_86" data-name="Tracé 86" d="M55.1,23.582a1.883,1.883,0,0,0-2.452,2.029,1.807,1.807,0,0,0,1.276,1.537,19.733,19.733,0,0,1,6.634,3.79,1.96,1.96,0,0,1-1.307,3.4H52.878a1.891,1.891,0,0,0-1.914,1.63,1.83,1.83,0,0,0,1.814,2.014h9.993a4.5,4.5,0,0,1,4.32,3.259v.085a4.474,4.474,0,0,1-4.3,5.7H56.806a1.9,1.9,0,0,0-1.922,1.63A1.83,1.83,0,0,0,56.7,50.672h5.189a4.5,4.5,0,0,1,4.174,6.265,1.222,1.222,0,0,1-.092.208,4.474,4.474,0,0,1-4.09,2.591h-8.6a1.9,1.9,0,0,0-1.922,1.637,1.822,1.822,0,0,0,1.814,2.006h2.544a1.968,1.968,0,0,1,.922,3.7,19.625,19.625,0,0,1-2.714,1.138l-4.5,1.937a25.76,25.76,0,0,0,.715,47.907,1.722,1.722,0,0,0,.646.123,1.822,1.822,0,0,0,1.753-1.315,1.9,1.9,0,0,0-1.207-2.275,22.062,22.062,0,0,1-9.3-6.819,1.991,1.991,0,0,1,0-2.483,2.076,2.076,0,0,1,1.668-.769h5a1.822,1.822,0,0,0,1.822-1.883,1.853,1.853,0,0,0-1.922-1.73H39.717a2.821,2.821,0,1,1,0-5.619h3.528a1.876,1.876,0,0,0,1.822-1.76,1.822,1.822,0,0,0-1.83-1.883H40.694a2.844,2.844,0,0,1-1.783-.569,2.775,2.775,0,0,1-.976-2.937v-.054a2.952,2.952,0,0,1,2.8-2.022h3.936A1.9,1.9,0,0,0,46.6,84.3a1.837,1.837,0,0,0-1.83-1.883h0a2.145,2.145,0,0,1-1.991-1.422,2.306,2.306,0,0,1,.538-2.306A22.078,22.078,0,0,1,51.379,73.3l3.636-1.537h.069c9.97-3.3,16.658-13.007,16.658-24.1S65.054,26.9,55.1,23.582Z" transform="translate(0 0)" fill="#db0026"/>
    <path id="Tracé_87" data-name="Tracé 87" d="M70.979,70.871l-2.706,3.92-6.265,2.675a1.968,1.968,0,0,0-.922-3.7H58.541a1.822,1.822,0,0,1-1.814-2.006,1.9,1.9,0,0,1,1.922-1.637h8.6a4.543,4.543,0,0,0,3.521-1.645Z" transform="translate(-5.371 -10.405)" fill="url(#linear-gradient)"/>
    <path id="Tracé_88" data-name="Tracé 88" d="M76.177,51.129l-.561,7.541L72.4,62.752a1.222,1.222,0,0,0,.092-.208,4.5,4.5,0,0,0-4.174-6.25H63.131a1.83,1.83,0,0,1-1.814-2.014,1.9,1.9,0,0,1,1.922-1.63H69.25A4.474,4.474,0,0,0,73.709,47.8Z" transform="translate(-6.433 -5.622)" fill="url(#linear-gradient-2)"/>
    <path id="Tracé_89" data-name="Tracé 89" d="M72.385,43.559v-.085a4.5,4.5,0,0,0-4.32-3.259H58.071A1.83,1.83,0,0,1,56.257,38.2a1.891,1.891,0,0,1,1.914-1.63h6.342a1.96,1.96,0,0,0,1.315-3.421l4.966,2.821,3.075,5.02Z" transform="translate(-5.263 -2.234)" fill="url(#linear-gradient-3)"/>
    <path id="Tracé_90" data-name="Tracé 90" d="M55.48,147.4h0Z" transform="translate(-5.085 -28.657)" fill="#221b5c"/>
    <path id="Tracé_91" data-name="Tracé 91" d="M57.9,146.779l.092-.069Z" transform="translate(-5.645 -28.498)" fill="#221b5c"/>
    <path id="Tracé_92" data-name="Tracé 92" d="M42.815,130.221a1.983,1.983,0,0,1-.184-2.237,2.114,2.114,0,0,1,1.868-1.015h4.958a1.822,1.822,0,0,0,1.822-1.883,1.853,1.853,0,0,0-1.922-1.73H40.5a2.944,2.944,0,0,1-3.075-2.806l-.546.284.346,2.6h0l2.306,5.935,2.667,1.207Z" transform="translate(-0.783 -22.448)" fill="url(#linear-gradient-4)"/>
    <path id="Tracé_93" data-name="Tracé 93" d="M39.29,104.675a2.783,2.783,0,0,1,2.66-2.006h4.074a1.9,1.9,0,0,0,1.929-1.768,1.837,1.837,0,0,0-1.83-1.883h0A2.152,2.152,0,0,1,44.171,97.7a2.175,2.175,0,0,1,.43-2.383l-2.544,1.537-2.737,5.281Z" transform="translate(-1.341 -16.613)" fill="url(#linear-gradient-5)"/>
    <path id="Tracé_94" data-name="Tracé 94" d="M56.09,147.44Z" transform="translate(-5.226 -28.667)" fill="#221b5c"/>
    <path id="Tracé_95" data-name="Tracé 95" d="M58.779,145.75l-.069.123Z" transform="translate(-5.832 -28.276)" fill="#221b5c"/>
    <path id="Tracé_96" data-name="Tracé 96" d="M58.34,146.365a.77.77,0,0,0,.092-.115.77.77,0,0,1-.092.115Z" transform="translate(-5.747 -28.391)" fill="#221b5c"/>
    <path id="Tracé_97" data-name="Tracé 97" d="M57.31,147.16h.077Z" transform="translate(-5.508 -28.602)" fill="#221b5c"/>
    <path id="Tracé_98" data-name="Tracé 98" d="M56.69,147.36h0Z" transform="translate(-5.365 -28.648)" fill="#221b5c"/>
    <path id="Tracé_99" data-name="Tracé 99" d="M56.641,128.665H63.29a1.876,1.876,0,0,0,1.868-1.461,1.822,1.822,0,0,0-1.791-2.183H59.639v-2.829h9.225a3.075,3.075,0,0,0,3.075-3.075V103.2a3.075,3.075,0,0,0-3.075-3.075H54.043a1.9,1.9,0,0,0-1.883,1.438,1.853,1.853,0,0,0,1.814,2.214H68.226v14.7h-10.4a1.845,1.845,0,0,0-.538.085A1.537,1.537,0,0,0,56,120.017v.238a.631.631,0,0,0,0,.108.285.285,0,0,0,0,.085v7.6A.661.661,0,0,0,56.641,128.665Z" transform="translate(-4.309 -17.725)" fill="#004971"/>
    <path id="Tracé_100" data-name="Tracé 100" d="M48.961,62.971a1.953,1.953,0,0,1-1.768-1.13,1.9,1.9,0,0,1,.261-2.068,1.83,1.83,0,0,0-2.821-2.306,5.673,5.673,0,0,0-1.222,2.568,3.049,3.049,0,0,1-1.384-4.213,3.844,3.844,0,0,0,.43-2.591l-.085-.43a3.344,3.344,0,0,0-.43-1.038,1.953,1.953,0,0,1,.653-2.652,1.83,1.83,0,0,0,.769-2.175,1.937,1.937,0,0,1,.246-1.783,2.037,2.037,0,0,1,1.722-.823h0a1.822,1.822,0,0,0,1.745-1.361,1.937,1.937,0,0,1,1.883-1.453,1.814,1.814,0,0,0,1.33-3.075,1.914,1.914,0,0,0-1.4-.561,5.427,5.427,0,0,0-4.712,2.9,5.627,5.627,0,0,0-4.443,6.065,5.642,5.642,0,0,0-.676,7.011,6.719,6.719,0,0,0-.223,6.411,6.611,6.611,0,0,0,5.45,3.69A5.435,5.435,0,0,0,48.9,66.63c1.491,0,2.306-.922,2.306-1.837a2.022,2.022,0,0,0-2.245-1.822Z" transform="translate(-1.073 -3.328)" fill="#aec923"/>
    <path id="Tracé_101" data-name="Tracé 101" d="M55.195,52.515a2.929,2.929,0,0,1-1.63-.922,5.658,5.658,0,0,0-1.122-3.221,1.845,1.845,0,1,0-3.029,2.107c.646.938.769,1.5-.492,2.352a1.845,1.845,0,1,0,2.107,3.029A7.211,7.211,0,0,0,52,55.09a5.612,5.612,0,0,0,3.2,1.138,1.845,1.845,0,0,0,0-3.69Z" transform="translate(-3.385 -5.572)" fill="#aec923"/>
    <path id="Tracé_102" data-name="Tracé 102" d="M93.165,103.637a3.121,3.121,0,0,1-.876-2.306V94.044a3.129,3.129,0,0,1,.876-2.306,3.249,3.249,0,0,1,5.6,2.306v.823c0,.123-.062.184-.192.184H97.6a.169.169,0,0,1-.192-.184V94A1.906,1.906,0,1,0,93.6,94v7.341a2.006,2.006,0,0,0,.523,1.43,1.806,1.806,0,0,0,1.368.553,1.783,1.783,0,0,0,1.376-.546,1.983,1.983,0,0,0,.515-1.438V98.887a.069.069,0,0,0-.077-.077H95.687c-.123,0-.184-.061-.184-.192v-.769a.169.169,0,0,1,.184-.192h2.89a.169.169,0,0,1,.192.192v3.5a3.075,3.075,0,0,1-.892,2.306,3.628,3.628,0,0,1-4.712,0Z" transform="translate(-13.597 -15.582)" fill="#160f23"/>
    <path id="Tracé_103" data-name="Tracé 103" d="M108.988,100H104.63a.069.069,0,0,0-.077.077v1.391a1.891,1.891,0,0,0,.454,1.307,1.491,1.491,0,0,0,1.168.507,1.537,1.537,0,0,0,1.045-.369,1.745,1.745,0,0,0,.561-.969.215.215,0,0,1,.215-.169h.953a.2.2,0,0,1,.138.054.177.177,0,0,1,0,.154,2.744,2.744,0,0,1-.922,1.791,3.013,3.013,0,0,1-2.022.653,2.952,2.952,0,0,1-2.168-.769,2.867,2.867,0,0,1-.807-2.122v-4.12a2.86,2.86,0,0,1,.807-2.114,3.321,3.321,0,0,1,4.359,0,2.837,2.837,0,0,1,.853,2.114v2.391a.169.169,0,0,1-.2.192Zm-3.982-3.844a1.937,1.937,0,0,0-.454,1.33v1.284a.069.069,0,0,0,.077.077h3.136a.069.069,0,0,0,.077-.077V97.511a1.906,1.906,0,0,0-.461-1.33,1.537,1.537,0,0,0-1.207-.5,1.484,1.484,0,0,0-1.168.5Zm.292-3.075a.161.161,0,0,1,0-.161l1.184-2.083a.269.269,0,0,1,.231-.138h.938q.115,0,.138.069a.161.161,0,0,1,0,.161l-1.338,2.083a.269.269,0,0,1-.231.138H105.5a.154.154,0,0,1-.2-.085Z" transform="translate(-16.114 -15.544)" fill="#160f23"/>
    <path id="Tracé_104" data-name="Tracé 104" d="M118.85,96.465a3.536,3.536,0,0,1,.638,2.237v6.58c0,.123-.062.184-.192.184h-.976a.161.161,0,0,1-.185-.185V98.817a2.306,2.306,0,0,0-.407-1.453,1.338,1.338,0,0,0-1.13-.515,1.445,1.445,0,0,0-1.2.553,2.383,2.383,0,0,0-.438,1.537V105.3a.169.169,0,0,1-.192.184h-.976c-.131,0-.192-.062-.192-.184V95.988a.169.169,0,0,1,.192-.192h.976a.177.177,0,0,1,.192.192v.676c0,.046,0,0,.054,0A2.306,2.306,0,0,1,117,95.688,2.2,2.2,0,0,1,118.85,96.465Z" transform="translate(-18.526 -16.696)" fill="#160f23"/>
    <path id="Tracé_105" data-name="Tracé 105" d="M129.665,100h-4.359c-.054,0-.077,0-.077.077v1.391a1.883,1.883,0,0,0,.446,1.307,1.639,1.639,0,0,0,2.222.138,1.791,1.791,0,0,0,.561-.969.208.208,0,0,1,.208-.169h.961a.177.177,0,0,1,.131.054.154.154,0,0,1,.038.154,2.744,2.744,0,0,1-.922,1.791,3.029,3.029,0,0,1-2.022.653,2.921,2.921,0,0,1-2.168-.769,2.844,2.844,0,0,1-.815-2.122v-4.12a2.837,2.837,0,0,1,.815-2.114,2.937,2.937,0,0,1,2.168-.815,2.975,2.975,0,0,1,2.191.815,2.867,2.867,0,0,1,.815,2.114v2.391a.177.177,0,0,1-.192.192Zm-3.99-3.844a1.93,1.93,0,0,0-.446,1.33v1.284a.069.069,0,0,0,.077.077h3.129a.069.069,0,0,0,.077-.077V97.51a1.937,1.937,0,0,0-.454-1.33,1.537,1.537,0,0,0-1.207-.5,1.491,1.491,0,0,0-1.176.5Zm.3-3.075a.138.138,0,0,1,0-.161l1.192-2.083a.269.269,0,0,1,.223-.138h.9a.146.146,0,0,1,.146.069.184.184,0,0,1,0,.161L127.1,93.013a.269.269,0,0,1-.231.138h-.723a.154.154,0,0,1-.169-.085Z" transform="translate(-20.901 -15.544)" fill="#160f23"/>
    <path id="Tracé_106" data-name="Tracé 106" d="M137.275,96.132h-1.453c-.054,0-.077,0-.077.077v5.85a1.853,1.853,0,0,0,.3,1.215,1.153,1.153,0,0,0,.938.315h.192a.169.169,0,0,1,.192.192v.823c0,.123-.061.184-.192.184H136.7a2.637,2.637,0,0,1-1.714-.484,2.306,2.306,0,0,1-.577-1.845v-6.25a.069.069,0,0,0-.077-.077h-.769a.169.169,0,0,1-.192-.192v-.63a.169.169,0,0,1,.192-.192h.769a.069.069,0,0,0,.077-.077v-2.1c0-.131.061-.192.184-.192h.961a.169.169,0,0,1,.192.192v2.137c0,.054,0,.077.077.077h1.453a.169.169,0,0,1,.184.192v.63C137.459,96.07,137.4,96.132,137.275,96.132Z" transform="translate(-23.099 -16.018)" fill="#160f23"/>
    <path id="Tracé_107" data-name="Tracé 107" d="M140.919,92.709a1.022,1.022,0,0,1-.269-.723.969.969,0,0,1,.269-.7.915.915,0,0,1,.692-.277.869.869,0,0,1,.661.277.992.992,0,0,1,.254.7,1.053,1.053,0,0,1-.254.723.853.853,0,0,1-.661.284A.892.892,0,0,1,140.919,92.709Zm0,11.531V94.907a.169.169,0,0,1,.192-.192h.976a.177.177,0,0,1,.192.192V104.2a.169.169,0,0,1-.192.184h-.976a.175.175,0,0,1-.192-.184Z" transform="translate(-24.783 -15.616)" fill="#160f23"/>
    <path id="Tracé_108" data-name="Tracé 108" d="M150.466,95.788h.969a.169.169,0,0,1,.192.192v13.007a.169.169,0,0,1-.192.192h-.969a.169.169,0,0,1-.192-.192v-4.243a.054.054,0,0,0,0-.054h-.062a2.175,2.175,0,0,1-1.9.915,2.306,2.306,0,0,1-1.845-.769,3.236,3.236,0,0,1-.769-2.076c0-.469,0-1.153,0-2.06V98.579a3.39,3.39,0,0,1,.769-2.114,2.306,2.306,0,0,1,1.822-.815,2.514,2.514,0,0,1,1.084.238,2.222,2.222,0,0,1,.815.7h.062a.061.061,0,0,0,0-.062v-.553a.169.169,0,0,1,.215-.185Zm-.646,8.118a2.068,2.068,0,0,0,.454-1.384v-3.79a2.037,2.037,0,0,0-.454-1.384,1.407,1.407,0,0,0-1.138-.523,1.537,1.537,0,0,0-1.2.53,1.937,1.937,0,0,0-.438,1.376v3.79a1.945,1.945,0,0,0,.438,1.384,1.537,1.537,0,0,0,1.2.523,1.43,1.43,0,0,0,1.138-.523Z" transform="translate(-25.951 -16.689)" fill="#160f23"/>
    <path id="Tracé_109" data-name="Tracé 109" d="M161.161,95.829h.976a.169.169,0,0,1,.184.192v9.294a.161.161,0,0,1-.184.184h-.976c-.131,0-.192-.062-.192-.184v-.707H160.9a2.052,2.052,0,0,1-1.906.992,2.421,2.421,0,0,1-1.83-.7,2.913,2.913,0,0,1-.676-2.114V96.022a.169.169,0,0,1,.192-.192h.969a.169.169,0,0,1,.185.192v6.5a2.26,2.26,0,0,0,.392,1.438,1.368,1.368,0,0,0,1.138.492,1.437,1.437,0,0,0,1.2-.553,2.429,2.429,0,0,0,.431-1.537V96.022a.169.169,0,0,1,.169-.192Z" transform="translate(-28.443 -16.73)" fill="#160f23"/>
    <path id="Tracé_110" data-name="Tracé 110" d="M172.635,101.142h-4.359c-.054,0-.077,0-.077.077v1.391a1.883,1.883,0,0,0,.446,1.307,1.639,1.639,0,0,0,2.222.138,1.745,1.745,0,0,0,.561-.969.215.215,0,0,1,.215-.169h.953a.177.177,0,0,1,.131.054.154.154,0,0,1,.038.154,2.744,2.744,0,0,1-.922,1.791,3.029,3.029,0,0,1-2.022.653,2.936,2.936,0,0,1-2.168-.769,2.875,2.875,0,0,1-.815-2.122v-4.12a2.867,2.867,0,0,1,.815-2.114,3.321,3.321,0,0,1,4.359,0,2.837,2.837,0,0,1,.815,2.114v2.391a.177.177,0,0,1-.192.192Zm-3.99-3.844a1.93,1.93,0,0,0-.446,1.33v1.284a.069.069,0,0,0,.077.077h3.136a.069.069,0,0,0,.077-.077V98.651a1.907,1.907,0,0,0-.461-1.33,1.537,1.537,0,0,0-1.207-.5,1.491,1.491,0,0,0-1.176.5Z" transform="translate(-30.839 -16.684)" fill="#160f23"/>
    <path id="Tracé_111" data-name="Tracé 111" d="M186.753,91h.976a.169.169,0,0,1,.192.192v13c0,.123-.062.184-.192.184h-.976a.169.169,0,0,1-.192-.184v-.553a.061.061,0,0,0,0-.062H186.5a2.137,2.137,0,0,1-.815.692,2.375,2.375,0,0,1-1.076.238,2.306,2.306,0,0,1-1.83-.769,3.4,3.4,0,0,1-.769-2.114q0-.7,0-2.122V97.434a3.113,3.113,0,0,1,.769-2.068,2.306,2.306,0,0,1,1.845-.769,2.183,2.183,0,0,1,1.891.922h.061a.054.054,0,0,0,0-.054V91.2a.169.169,0,0,1,.177-.2Zm-.638,11.823a2.068,2.068,0,0,0,.446-1.384V97.657a2.037,2.037,0,0,0-.446-1.384,1.414,1.414,0,0,0-1.138-.523,1.537,1.537,0,0,0-1.207.523,1.922,1.922,0,0,0-.438,1.384v3.79a1.952,1.952,0,0,0,.438,1.376,1.538,1.538,0,0,0,1.207.53,1.438,1.438,0,0,0,1.138-.523Z" transform="translate(-34.348 -15.613)" fill="#160f23"/>
    <path id="Tracé_112" data-name="Tracé 112" d="M198.257,101.142H193.9a.069.069,0,0,0-.077.077v1.391a1.891,1.891,0,0,0,.454,1.307,1.629,1.629,0,0,0,2.214.138,1.8,1.8,0,0,0,.569-.969.208.208,0,0,1,.208-.169h.953a.185.185,0,0,1,.138.054.177.177,0,0,1,0,.154,2.79,2.79,0,0,1-.93,1.791,3.006,3.006,0,0,1-2.014.653,2.952,2.952,0,0,1-2.175-.769,2.867,2.867,0,0,1-.769-2.122v-4.12a2.86,2.86,0,0,1,.769-2.114,3.321,3.321,0,0,1,4.359,0,2.837,2.837,0,0,1,.815,2.114v2.391a.169.169,0,0,1-.154.192ZM194.275,97.3a1.937,1.937,0,0,0-.454,1.33v1.284a.069.069,0,0,0,.077.077h3.136a.069.069,0,0,0,.077-.077V98.651a1.907,1.907,0,0,0-.461-1.33,1.538,1.538,0,0,0-1.2-.5,1.491,1.491,0,0,0-1.184.5Z" transform="translate(-36.766 -16.684)" fill="#160f23"/>
    <path id="Tracé_113" data-name="Tracé 113" d="M203.158,104.884a2.252,2.252,0,0,1-.769-1.807v-.138a.169.169,0,0,1,.184-.192h.922c.123,0,.192.054.192.154v.154a1.376,1.376,0,0,0,.446,1.038,1.668,1.668,0,0,0,1.176.415,1.538,1.538,0,0,0,1.107-.415,1.461,1.461,0,0,0,.423-1.076,1.3,1.3,0,0,0-.269-.83,1.922,1.922,0,0,0-.623-.523,10.578,10.578,0,0,0-1.061-.5,9.223,9.223,0,0,1-1.261-.63,2.767,2.767,0,0,1-.846-.846,2.529,2.529,0,0,1-.346-1.384,2.5,2.5,0,0,1,.769-1.929,3.29,3.29,0,0,1,4.1,0,2.544,2.544,0,0,1,.769,1.93v.062c0,.131-.062.192-.185.192H207c-.123,0-.185-.054-.185-.154V98.25a1.414,1.414,0,0,0-.438-1.069,1.537,1.537,0,0,0-1.115-.423,1.438,1.438,0,0,0-1.537,1.491,1.207,1.207,0,0,0,.246.769,1.968,1.968,0,0,0,.607.515q.369.2,1.015.484a11.055,11.055,0,0,1,1.291.653,2.952,2.952,0,0,1,.892.861,2.36,2.36,0,0,1,.384,1.376,2.414,2.414,0,0,1-.769,1.891,3.075,3.075,0,0,1-2.129.707,3.167,3.167,0,0,1-2.106-.623Z" transform="translate(-39.061 -16.691)" fill="#160f23"/>
    <path id="Tracé_114" data-name="Tracé 114" d="M222.477,104.216l-.484-2.368a.061.061,0,0,0,0-.062h-3.636a.077.077,0,0,0,0,.062l-.492,2.368c0,.115-.085.169-.215.169h-.969a.169.169,0,0,1-.146-.054.192.192,0,0,1,0-.154l2.89-13a.192.192,0,0,1,.208-.169h1.1c.131,0,.2.054.208.169l2.913,13h0c0,.115-.061.169-.177.169h-.992a.192.192,0,0,1-.208-.131Zm-3.844-3.552h3c.038,0,.054,0,.054-.077l-1.537-7.364s0-.054-.038-.054,0,0-.038.054l-1.537,7.364c.077.046.1.077.138.077Z" transform="translate(-42.329 -15.616)" fill="#160f23"/>
    <path id="Tracé_115" data-name="Tracé 115" d="M233.69,96.465a3.536,3.536,0,0,1,.638,2.237v6.58c0,.123-.061.184-.192.184h-.976a.161.161,0,0,1-.185-.185V98.817a2.306,2.306,0,0,0-.407-1.453,1.338,1.338,0,0,0-1.13-.515,1.445,1.445,0,0,0-1.2.553,2.383,2.383,0,0,0-.438,1.537v6.365a.169.169,0,0,1-.192.184h-.976c-.131,0-.192-.062-.192-.184V95.989a.169.169,0,0,1,.192-.192h1.007a.177.177,0,0,1,.192.192v.676c0,.046.038,0,.054,0a2.306,2.306,0,0,1,1.991-.976,2.2,2.2,0,0,1,1.814.776Z" transform="translate(-45.086 -16.697)" fill="#160f23"/>
    <path id="Tracé_116" data-name="Tracé 116" d="M239.524,104.808a2.844,2.844,0,0,1-.815-2.122V98.559a2.844,2.844,0,0,1,.823-2.114,3.329,3.329,0,0,1,4.366,0,2.829,2.829,0,0,1,.838,2.114v4.128a2.852,2.852,0,0,1-.823,2.122,3.013,3.013,0,0,1-2.2.769A2.96,2.96,0,0,1,239.524,104.808Zm3.382-.892a1.83,1.83,0,0,0,.469-1.307V98.651a1.876,1.876,0,0,0-.469-1.33,1.661,1.661,0,0,0-2.375,0,1.906,1.906,0,0,0-.461,1.33v3.959a1.86,1.86,0,0,0,.461,1.307,1.644,1.644,0,0,0,2.375,0Z" transform="translate(-47.461 -16.684)" fill="#160f23"/>
    <path id="Tracé_117" data-name="Tracé 117" d="M258.8,96.492a3.844,3.844,0,0,1,.63,2.306v6.442a.161.161,0,0,1-.185.184h-.953a.169.169,0,0,1-.192-.184v-6.3a2.552,2.552,0,0,0-.407-1.537,1.3,1.3,0,0,0-1.076-.561,1.368,1.368,0,0,0-1.153.553,2.475,2.475,0,0,0-.415,1.537v6.365a.169.169,0,0,1-.192.184h-.976c-.131,0-.192-.062-.192-.184V98.937a2.606,2.606,0,0,0-.407-1.537,1.284,1.284,0,0,0-1.069-.561,1.391,1.391,0,0,0-1.153.553,2.429,2.429,0,0,0-.43,1.537v6.365c0,.123-.061.184-.192.184h-.953c-.131,0-.192-.062-.192-.184V95.977a.169.169,0,0,1,.192-.192h.953a.169.169,0,0,1,.192.192v.638h.069a2.2,2.2,0,0,1,.853-.707,2.5,2.5,0,0,1,1.053-.231,2.206,2.206,0,0,1,1.261.354,2.252,2.252,0,0,1,.823,1,.054.054,0,0,0,.061,0s.038,0,.054-.054a2.306,2.306,0,0,1,.938-1.015A2.606,2.606,0,0,1,257,95.639a2.076,2.076,0,0,1,1.8.853Z" transform="translate(-49.908 -16.686)" fill="#160f23"/>
    <path id="Tracé_118" data-name="Tracé 118" d="M270.183,96.508a3.3,3.3,0,0,1,.769,2.306v6.442c0,.123-.061.184-.192.184h-.976a.169.169,0,0,1-.192-.184v-.607a.092.092,0,0,0-.069,0,2.483,2.483,0,0,1-2.106.915,2.883,2.883,0,0,1-1.822-.6,2.56,2.56,0,0,1-.769-2.129,2.891,2.891,0,0,1,.9-2.306,3.844,3.844,0,0,1,2.468-.769h1.376c.046,0,.069,0,.069-.077v-.769a2.46,2.46,0,0,0-.43-1.537,1.376,1.376,0,0,0-1.176-.569,1.437,1.437,0,0,0-.992.377,1.484,1.484,0,0,0-.477.976.192.192,0,0,1-.208.192H265.3a.184.184,0,0,1-.146-.054.146.146,0,0,1,0-.138,2.591,2.591,0,0,1,.915-1.822,3.075,3.075,0,0,1,2.022-.7A2.737,2.737,0,0,1,270.183,96.508Zm-1.13,7.411a1.783,1.783,0,0,0,.561-1.4v-1.607c0-.054,0-.077-.069-.077H268.2a2.1,2.1,0,0,0-1.453.484,1.86,1.86,0,0,0-.53,1.445,1.7,1.7,0,0,0,.407,1.253,1.491,1.491,0,0,0,1.084.407A1.945,1.945,0,0,0,269.053,103.919Z" transform="translate(-53.498 -16.686)" fill="#160f23"/>
    <path id="Tracé_119" data-name="Tracé 119" d="M275.439,104.2v-13a.169.169,0,0,1,.192-.192h1.007a.169.169,0,0,1,.192.192v13a.169.169,0,0,1-.192.184h-.976C275.5,104.385,275.439,104.324,275.439,104.2Z" transform="translate(-55.956 -15.615)" fill="#160f23"/>
    <path id="Tracé_120" data-name="Tracé 120" d="M280.139,92.709a.992.992,0,0,1-.269-.723.938.938,0,0,1,.269-.7.9.9,0,0,1,.684-.277.861.861,0,0,1,.661.277.992.992,0,0,1,.254.7,1.053,1.053,0,0,1-.254.723.838.838,0,0,1-.661.284.876.876,0,0,1-.684-.284Zm0,11.531V94.907a.169.169,0,0,1,.184-.192h.976a.169.169,0,0,1,.192.192V104.2c0,.123-.061.184-.192.184h-.976a.161.161,0,0,1-.184-.185Z" transform="translate(-56.981 -15.616)" fill="#160f23"/>
    <path id="Tracé_121" data-name="Tracé 121" d="M290.628,101.141h-4.359a.069.069,0,0,0-.077.077v1.391a1.891,1.891,0,0,0,.454,1.307,1.629,1.629,0,0,0,2.214.138,1.753,1.753,0,0,0,.569-.969.208.208,0,0,1,.208-.169h.953a.184.184,0,0,1,.138.054.177.177,0,0,1,.038.154,2.752,2.752,0,0,1-.93,1.791,3,3,0,0,1-2.014.653,2.921,2.921,0,0,1-2.168-.769,2.844,2.844,0,0,1-.815-2.122v-4.12a2.837,2.837,0,0,1,.815-2.114,2.937,2.937,0,0,1,2.168-.815,2.99,2.99,0,0,1,2.191.815,2.86,2.86,0,0,1,.807,2.114v2.391a.169.169,0,0,1-.192.192ZM286.646,97.3a1.937,1.937,0,0,0-.454,1.33v1.284a.069.069,0,0,0,.077.077h3.136a.069.069,0,0,0,.077-.077V98.65a1.937,1.937,0,0,0-.454-1.33,1.537,1.537,0,0,0-1.207-.5,1.491,1.491,0,0,0-1.176.5Z" transform="translate(-58.129 -16.683)" fill="#160f23"/>
    <path id="Tracé_122" data-name="Tracé 122" d="M295.538,104.894a2.252,2.252,0,0,1-.769-1.807v-.138a.169.169,0,0,1,.192-.192h.915c.131,0,.192.054.192.154v.154a1.376,1.376,0,0,0,.446,1.038,1.668,1.668,0,0,0,1.176.415,1.537,1.537,0,0,0,1.107-.415,1.461,1.461,0,0,0,.423-1.076,1.253,1.253,0,0,0-.269-.83,1.975,1.975,0,0,0-.615-.523c-.238-.131-.592-.3-1.069-.5a9.224,9.224,0,0,1-1.23-.6,2.668,2.668,0,0,1-.838-.846,2.468,2.468,0,0,1-.354-1.384,2.5,2.5,0,0,1,.769-1.929,3.29,3.29,0,0,1,4.1,0,2.522,2.522,0,0,1,.769,1.93v.062a.169.169,0,0,1-.192.192h-.876c-.131,0-.192-.054-.192-.154V98.29a1.438,1.438,0,0,0-.43-1.053,1.538,1.538,0,0,0-1.122-.423,1.438,1.438,0,0,0-1.537,1.491,1.207,1.207,0,0,0,.246.769,2,2,0,0,0,.615.515q.361.2,1.015.484a11.529,11.529,0,0,1,1.284.653,2.867,2.867,0,0,1,.892.861,2.36,2.36,0,0,1,.384,1.376,2.414,2.414,0,0,1-.769,1.891,3.075,3.075,0,0,1-2.122.707,3.167,3.167,0,0,1-2.137-.669Z" transform="translate(-60.426 -16.7)" fill="#160f23"/>
    <path id="Tracé_123" data-name="Tracé 123" d="M96.953,115.877h.976c.131,0,.192.061.192.184v12.976a.169.169,0,0,1-.192.192h-.976a.169.169,0,0,1-.192-.192v-.553a.061.061,0,0,0,0-.054H96.7a2.222,2.222,0,0,1-.815.7,2.376,2.376,0,0,1-1.076.238,2.306,2.306,0,0,1-1.83-.769,3.4,3.4,0,0,1-.769-2.114V122.3a3.152,3.152,0,0,1,.769-2.076,2.306,2.306,0,0,1,1.845-.769,2.191,2.191,0,0,1,1.837.892h.061a.061.061,0,0,0,0-.054v-4.251a.169.169,0,0,1,.231-.161Zm-.638,11.815a2.037,2.037,0,0,0,.446-1.384v-3.782a2.037,2.037,0,0,0-.446-1.384,1.422,1.422,0,0,0-1.138-.53,1.537,1.537,0,0,0-1.207.53,1.922,1.922,0,0,0-.438,1.384v3.782a1.937,1.937,0,0,0,.438,1.376,1.537,1.537,0,0,0,1.207.538A1.422,1.422,0,0,0,96.315,127.692Z" transform="translate(-13.58 -21.364)" fill="#160f23"/>
    <path id="Tracé_124" data-name="Tracé 124" d="M107.511,120.7h.976a.169.169,0,0,1,.192.192v9.263a.169.169,0,0,1-.192.192h-.976a.169.169,0,0,1-.192-.192v-.707a.108.108,0,0,0-.069,0,2.045,2.045,0,0,1-1.914,1,2.445,2.445,0,0,1-1.822-.7,2.921,2.921,0,0,1-.676-2.114v-6.7a.169.169,0,0,1,.192-.192H104a.169.169,0,0,1,.192.192v6.5a2.306,2.306,0,0,0,.392,1.445,1.376,1.376,0,0,0,1.138.492,1.453,1.453,0,0,0,1.2-.561,2.406,2.406,0,0,0,.423-1.537V120.93a.169.169,0,0,1,.169-.231Z" transform="translate(-16.035 -22.482)" fill="#160f23"/>
    <path id="Tracé_125" data-name="Tracé 125" d="M118.717,129.04V116.063c0-.123.062-.184.192-.184h2.944a3.013,3.013,0,0,1,2.352.961,3.713,3.713,0,0,1,.876,2.591V125.7a3.713,3.713,0,0,1-.876,2.591,3.075,3.075,0,0,1-2.352.961h-2.921a.169.169,0,0,1-.215-.215Zm1.438-.992h1.676a1.63,1.63,0,0,0,1.353-.653,2.821,2.821,0,0,0,.523-1.76v-6.15a2.883,2.883,0,0,0-.492-1.776,1.653,1.653,0,0,0-1.384-.646h-1.676c-.054,0-.077,0-.077.077v10.854c0,.054.023.077.077.077Z" transform="translate(-19.708 -21.367)" fill="#160f23"/>
    <path id="Tracé_126" data-name="Tracé 126" d="M135.521,124.862h-4.359a.069.069,0,0,0-.077.077v1.4a1.906,1.906,0,0,0,.454,1.307,1.627,1.627,0,0,0,2.222.131,1.768,1.768,0,0,0,.561-.961.208.208,0,0,1,.223-.154l.953.038a.185.185,0,0,1,.138.054.177.177,0,0,1,0,.154,2.721,2.721,0,0,1-.93,1.783,3.367,3.367,0,0,1-4.182-.138,2.844,2.844,0,0,1-.815-2.122v-4.151a2.829,2.829,0,0,1,.815-2.106,2.906,2.906,0,0,1,2.168-.815,2.96,2.96,0,0,1,2.191.815,2.86,2.86,0,0,1,.807,2.106v2.391a.169.169,0,0,1-.169.192Zm-3.982-3.844a1.937,1.937,0,0,0-.454,1.33v1.284a.069.069,0,0,0,.077.077H134.3a.069.069,0,0,0,.077-.077v-1.284a1.937,1.937,0,0,0-.454-1.33,1.619,1.619,0,0,0-2.383.031Zm.292-3.075a.161.161,0,0,1,0-.161l1.184-2.083a.284.284,0,0,1,.231-.138h.9q.115,0,.138.069a.161.161,0,0,1,0,.161l-1.338,2.083a.292.292,0,0,1-.231.138h-.769a.169.169,0,0,1-.115-.077Z" transform="translate(-22.252 -21.294)" fill="#160f23"/>
    <path id="Tracé_127" data-name="Tracé 127" d="M141.608,130.208l-2.368-9.271v-.077c0-.085.054-.131.169-.131h1.107c.131,0,.2.054.208.169l1.645,7.4s0,.054.038.054,0,0,0-.054l1.622-7.4a.2.2,0,0,1,.215-.169h1.107a.184.184,0,0,1,.146.062.138.138,0,0,1,0,.154l-2.352,9.271c0,.115-.085.169-.208.169h-1.115a.2.2,0,0,1-.215-.177Z" transform="translate(-24.457 -22.489)" fill="#160f23"/>
    <path id="Tracé_128" data-name="Tracé 128" d="M154.9,126h-4.343a.069.069,0,0,0-.077.077v1.4a1.9,1.9,0,0,0,.446,1.307,1.627,1.627,0,0,0,2.222.131,1.768,1.768,0,0,0,.561-.961.208.208,0,0,1,.208-.169l.961.038a.177.177,0,0,1,.131.054.154.154,0,0,1,0,.154,2.721,2.721,0,0,1-.93,1.783,3.367,3.367,0,0,1-4.182-.138,2.844,2.844,0,0,1-.815-2.122V123.42a2.829,2.829,0,0,1,.815-2.106,2.906,2.906,0,0,1,2.2-.815,2.96,2.96,0,0,1,2.191.815,2.86,2.86,0,0,1,.769,2.106v2.391C155.083,125.941,155.021,126,154.9,126Zm-3.99-3.844a1.93,1.93,0,0,0-.446,1.33v1.284a.069.069,0,0,0,.077.077h3.129a.069.069,0,0,0,.077-.077v-1.284a1.937,1.937,0,0,0-.454-1.33,1.619,1.619,0,0,0-2.383.031Z" transform="translate(-26.732 -22.435)" fill="#160f23"/>
    <path id="Tracé_129" data-name="Tracé 129" d="M159.359,129.041V116.064c0-.123.061-.184.192-.184h.969c.131,0,.192.062.192.184v12.976a.169.169,0,0,1-.192.192h-.969a.169.169,0,0,1-.192-.192Z" transform="translate(-29.109 -21.368)" fill="#160f23"/>
    <path id="Tracé_130" data-name="Tracé 130" d="M164.544,129.678a2.875,2.875,0,0,1-.815-2.122v-4.136a2.837,2.837,0,0,1,.823-2.106,3.329,3.329,0,0,1,4.366,0,2.79,2.79,0,0,1,.838,2.106v4.136a2.852,2.852,0,0,1-.823,2.122,3.075,3.075,0,0,1-2.2.769,2.99,2.99,0,0,1-2.191-.769Zm3.382-.892a1.845,1.845,0,0,0,.469-1.307v-3.959a1.876,1.876,0,0,0-.469-1.33,1.644,1.644,0,0,0-2.375,0,1.907,1.907,0,0,0-.461,1.33v3.959a1.876,1.876,0,0,0,.461,1.307,1.644,1.644,0,0,0,2.375,0Z" transform="translate(-30.12 -22.436)" fill="#160f23"/>
    <path id="Tracé_131" data-name="Tracé 131" d="M180.392,125.566v2.06a3.152,3.152,0,0,1-.769,2.076,2.306,2.306,0,0,1-1.845.769,2.214,2.214,0,0,1-1.891-.915.069.069,0,0,0-.069,0,.077.077,0,0,0,0,.062v4.243a.177.177,0,0,1-.192.192h-.984a.169.169,0,0,1-.192-.192V120.9a.169.169,0,0,1,.192-.192h1a.169.169,0,0,1,.192.192v.553a.061.061,0,0,0,0,.054h.069a2.106,2.106,0,0,1,.815-.7,2.375,2.375,0,0,1,1.076-.238,2.306,2.306,0,0,1,1.83.815,3.375,3.375,0,0,1,.769,2.106ZM178.6,128.78a2,2,0,0,0,.438-1.384v-3.782a2.014,2.014,0,0,0-.438-1.376,1.537,1.537,0,0,0-1.207-.538,1.422,1.422,0,0,0-1.138.53,2.037,2.037,0,0,0-.446,1.384V127.4a2.037,2.037,0,0,0,.446,1.384,1.422,1.422,0,0,0,1.138.53A1.537,1.537,0,0,0,178.6,128.78Z" transform="translate(-32.599 -22.452)" fill="#160f23"/>
    <path id="Tracé_132" data-name="Tracé 132" d="M191.044,125.566v2.06a3.19,3.19,0,0,1-.769,2.076,2.306,2.306,0,0,1-1.845.769,2.214,2.214,0,0,1-1.9-.915h-.061a.062.062,0,0,0,0,.062v4.243a.169.169,0,0,1-.192.192H185.3a.177.177,0,0,1-.192-.192V120.9a.169.169,0,0,1,.192-.192h.976a.169.169,0,0,1,.192.192v.553a.054.054,0,0,0,0,.054h.061a2.222,2.222,0,0,1,.815-.7,2.391,2.391,0,0,1,1.084-.238,2.306,2.306,0,0,1,1.822.815,3.336,3.336,0,0,1,.769,2.106C191.036,123.914,191.044,124.621,191.044,125.566Zm-1.8,3.213a1.922,1.922,0,0,0,.438-1.384v-3.782a1.937,1.937,0,0,0-.438-1.376,1.537,1.537,0,0,0-1.207-.538,1.438,1.438,0,0,0-1.138.53,2.037,2.037,0,0,0-.446,1.384V127.4a2.037,2.037,0,0,0,.446,1.384,1.437,1.437,0,0,0,1.138.53A1.538,1.538,0,0,0,189.245,128.78Z" transform="translate(-35.065 -22.452)" fill="#160f23"/>
    <path id="Tracé_133" data-name="Tracé 133" d="M201.108,126h-4.359a.069.069,0,0,0-.077.077v1.4a1.906,1.906,0,0,0,.454,1.307,1.468,1.468,0,0,0,1.168.507,1.537,1.537,0,0,0,1.045-.377,1.722,1.722,0,0,0,.561-.961.215.215,0,0,1,.215-.169l.953.038a.169.169,0,0,1,.131.054.154.154,0,0,1,.038.154,2.714,2.714,0,0,1-.922,1.783,3.375,3.375,0,0,1-4.19-.138,2.867,2.867,0,0,1-.807-2.122v-4.136a2.86,2.86,0,0,1,.807-2.106,3.321,3.321,0,0,1,4.359,0,2.829,2.829,0,0,1,.815,2.106v2.391a.169.169,0,0,1-.192.192Zm-3.982-3.844a1.937,1.937,0,0,0-.454,1.33v1.284a.069.069,0,0,0,.077.077h3.136a.069.069,0,0,0,.077-.077V123.49a1.907,1.907,0,0,0-.461-1.33,1.537,1.537,0,0,0-1.207-.507,1.468,1.468,0,0,0-1.168.538Z" transform="translate(-37.426 -22.436)" fill="#160f23"/>
    <path id="Tracé_134" data-name="Tracé 134" d="M215.236,121.376a3.8,3.8,0,0,1,.638,2.306v6.442a.169.169,0,0,1-.192.192h-.961a.169.169,0,0,1-.192-.192v-6.3a2.552,2.552,0,0,0-.407-1.537,1.276,1.276,0,0,0-1.076-.561,1.368,1.368,0,0,0-1.153.553,2.452,2.452,0,0,0-.415,1.537v6.311a.169.169,0,0,1-.192.192h-.976a.169.169,0,0,1-.192-.192v-6.3a2.606,2.606,0,0,0-.407-1.537,1.268,1.268,0,0,0-1.068-.561,1.391,1.391,0,0,0-1.153.553,2.406,2.406,0,0,0-.43,1.537v6.311a.169.169,0,0,1-.192.192h-.922a.169.169,0,0,1-.192-.192V120.9a.169.169,0,0,1,.192-.192h.953a.169.169,0,0,1,.192.192v.592a.054.054,0,0,0,0,.046h.069a2.306,2.306,0,0,1,.853-.707,2.614,2.614,0,0,1,1.053-.223,2.145,2.145,0,0,1,2.083,1.353.061.061,0,0,0,.061,0s.038,0,.054-.054a2.306,2.306,0,0,1,.938-1.015,2.606,2.606,0,0,1,1.261-.323A2.076,2.076,0,0,1,215.236,121.376Z" transform="translate(-39.838 -22.451)" fill="#160f23"/>
    <path id="Tracé_135" data-name="Tracé 135" d="M227.306,126h-4.359a.069.069,0,0,0-.077.077v1.4a1.906,1.906,0,0,0,.454,1.307,1.614,1.614,0,0,0,2.214.131,1.776,1.776,0,0,0,.569-.961.208.208,0,0,1,.208-.169l.946.015a.2.2,0,0,1,.138.054.177.177,0,0,1,0,.154,2.714,2.714,0,0,1-.922,1.783,3.375,3.375,0,0,1-4.19-.138,2.867,2.867,0,0,1-.807-2.122v-4.113a2.86,2.86,0,0,1,.807-2.106,3.321,3.321,0,0,1,4.359,0,2.829,2.829,0,0,1,.815,2.106v2.391a.169.169,0,0,1-.154.192Zm-3.982-3.844a1.937,1.937,0,0,0-.454,1.33v1.284a.069.069,0,0,0,.077.077h3.136a.069.069,0,0,0,.077-.077V123.49a1.906,1.906,0,0,0-.461-1.33,1.537,1.537,0,0,0-1.207-.507,1.491,1.491,0,0,0-1.168.538Z" transform="translate(-43.476 -22.436)" fill="#160f23"/>
    <path id="Tracé_136" data-name="Tracé 136" d="M237.17,121.348a3.536,3.536,0,0,1,.638,2.237v6.55a.169.169,0,0,1-.192.192h-.976c-.123,0-.185-.061-.185-.192v-6.457a2.306,2.306,0,0,0-.407-1.453,1.338,1.338,0,0,0-1.13-.515,1.445,1.445,0,0,0-1.2.553,2.36,2.36,0,0,0-.438,1.537v6.334a.169.169,0,0,1-.192.192h-.976a.169.169,0,0,1-.192-.192V120.91a.169.169,0,0,1,.192-.192h.976a.169.169,0,0,1,.192.192v.63l.038.046c.038.046,0,0,.054,0a2.306,2.306,0,0,1,1.991-.969,2.175,2.175,0,0,1,1.806.73Z" transform="translate(-45.891 -22.462)" fill="#160f23"/>
    <path id="Tracé_137" data-name="Tracé 137" d="M245.465,120.986h-1.453a.069.069,0,0,0-.077.077v5.85a1.853,1.853,0,0,0,.307,1.215,1.207,1.207,0,0,0,.938.315h.192c.131,0,.192.061.192.184v.815a.169.169,0,0,1-.192.192H244.9a2.637,2.637,0,0,1-1.714-.484,2.306,2.306,0,0,1-.584-1.845v-6.25c0-.054,0-.077-.077-.077h-.769a.169.169,0,0,1-.192-.192v-.569a.169.169,0,0,1,.192-.192h.769c.054,0,.077,0,.077-.077v-2.137a.169.169,0,0,1,.192-.192h.953a.169.169,0,0,1,.192.192v2.137a.069.069,0,0,0,.077.077h1.453a.169.169,0,0,1,.192.192v.63a.169.169,0,0,1-.192.138Z" transform="translate(-48.12 -21.77)" fill="#160f23"/>
    <path id="Tracé_138" data-name="Tracé 138" d="M111.329,32.82c9.071,0,13.5,4.7,13.5,4.7l-3.844,4.9a15.813,15.813,0,0,0-9.532-3.306c-6.411,0-11.884,5.058-11.884,12.561,0,8.087,5.527,13.068,12.146,13.068a13.422,13.422,0,0,0,9.386-3.844V58.111a1.03,1.03,0,0,0-1.153-1.153H117.71V51.177h6c2.5,0,3.544,1.038,3.544,3.49v15.8h-5.842V68.689c0-.769.054-1.537.054-1.537h-.1a16.2,16.2,0,0,1-10.9,3.959c-9.694,0-17.98-7.4-17.98-19.341A18.563,18.563,0,0,1,111.329,32.82Z" transform="translate(-13.642 -2.158)" fill="#160f23"/>
    <path id="Tracé_139" data-name="Tracé 139" d="M141.438,64.866h.83a1.391,1.391,0,0,0,1.614-1.145l11-30.08h7.149l10.947,30.08a1.391,1.391,0,0,0,1.614,1.145h.83v5.788h-4.067c-2.606,0-3.544-.676-4.374-3.029l-2.306-6.457h-12.5l-2.306,6.457c-.83,2.352-1.714,3.029-4.328,3.029H141.43Zm21.686-9.332-3.183-9.279c-.676-2.037-1.461-5.527-1.461-5.527h-.1s-.769,3.49-1.461,5.527l-3.183,9.279Z" transform="translate(-24.963 -2.348)" fill="#160f23"/>
    <path id="Tracé_140" data-name="Tracé 140" d="M192.09,39.428H188.7V33.64h15.067c11.423,0,18.872,6.772,18.872,18.449s-7.449,18.557-18.872,18.557h-8.133c-2.5,0-3.544-1.045-3.544-3.544Zm7.979,25.437h3.336c7.4,0,12.146-4.428,12.146-12.769S210.7,39.428,203.406,39.428h-4.482V63.72a1.038,1.038,0,0,0,1.145,1.145Z" transform="translate(-35.896 -2.348)" fill="#160f23"/>
  </g>
</svg>